<svg id="Layer_1" data-name="Layer 1" xmlns="http://www.w3.org/2000/svg" viewBox="0 0 300.22 107.31"><defs><style>.cls-1{fill:#232967;fill-rule:evenodd;}.cls-2{fill:none;stroke:#fff;stroke-miterlimit:22.93;stroke-width:0.22px;}</style></defs><title>logo_klishe</title><path class="cls-1" d="M51.62,29.4c-4.15-5.07-7-6.28-14.94-4.34-.65,1.81-1.29,3.63-1.84,5.54-8.58,4.87-4.52,11.08-8.86,19.2-2.4.1-4.8.29-7.2.48.09-6.59-1.2-15.38,2.22-21a12.09,12.09,0,0,1,1.66.67c1.29-2,1.29-2,1.2-4.87-6-1.53-6-1.53-9.51-1.15l-1.94-2a32.92,32.92,0,0,0-3.23,1.34c-1.94.57-3.88,1.15-5.81,1.82.09,1.05.19,2.1.37,3.15,1.94.67,4,1.43,6,2.2C9.64,46.56,9.55,62.8,9.46,79,7.24,80.75,5,82.47,2.81,84.29v3.63c2.12.29,4.25.67,6.37,1.05,1.66.19,3.41.38,5.17.67,4.71-1,9.41-1.82,14.12-2.67a23.83,23.83,0,0,1,.09-2.58C23.39,83,23.39,83,21,83.62,15.73,76.07,16.38,68,16.29,59.07,31,48.95,34.19,69.2,34.93,78.27a13,13,0,0,0-2,.76c3.2,9.94,8.65,14,16.8,8.09l1.92-4.67V77.41c-2.33-3-5.67-2.6-11.5-4.65-.83-7.83-.92-12.23-4.8-19C39,41.91,43.63,41.8,50.85,35.12L52,32.2Zm11.82,53c5.73,6,3.84,8.13,15.58,6.65.29-2,.29-2,2.83-3.07,1.76-6.34,3.52-12.67,5.27-18.91-.49-1.82-1-3.65-1.37-5.38.39-5.47-1.17-30.24,6.93-30.24,3.81,5.18,3.22,12,3.91,18.24.19,1.92.39,3.94.68,6C97,64.25,96.69,73,96.4,81.72c-1.66-.19-3.32-.38-4.88-.48-.68,5.38-.68,5.38.49,7.87,2.83.86,17.77.19,21.87-1.15-.88-1.73-1.76-3.46-2.54-5.18C97.18,78.65,104,61.66,104.12,49c.2-2,.39-4,.68-6,.39,0-.24-1.16.25-1.16V37.05c-.49,0,.51-.84.12-.84-.19-1.34-.66-2.58-.76-3.83l1.76-2h5.37V23.64c-10.55.29-21.39-1.06-39.26.1-.39,1.15-.78,2.3-1.17,3.55,2.15,3.26,3.13,3.94,6.84,5.66.29,2.88.68,5.76,1.07,8.74-.29,2.88-.49,5.76-.68,8.64.1,8.64.1,15.07-2.25,23.43-3.91.38-7.71.86-11.52,1.34-.4.51-.77,1-1.12,1.52ZM117,.34V107H61.25V.35H117Zm58,85.92a16.4,16.4,0,0,0-4.24-2.79c-.78-16.75-1.66-34,.78-50,1.37-.29,2.83-.58,4.29-.77.19-1.34.39-2.68.68-4-3.61-2-18.63-5-20.29-.67v8.62c-4.58,6-1.56,15.6-8.88,22.59-6.44,15.32-6.44,15.32-8.1,16-3.9-12.35.29-28.43,1.37-41.26l6.73-4.6V26c-6.63,0-13.27,0-19.8.1-.2,1.44-.39,2.87-.59,4.4l4.29.29c2.63,5.27.68,6.89,1.95,11.87.39,1.72.88,3.45,1.37,5.27-.29,9.19,1.07,31.69-7.9,37.24-.39,1.34-.78,2.68-1.07,4.12l3.51.57h5.46c5.75,0,8.58.77,14.83-.38a15.85,15.85,0,0,1,.1-2.2c-1-.29-1.85-.58-2.73-.77.89-14.36,8.06-32.65,17.56-42.51V59.25c-2.73,7.76-1.27,16-2.44,24.22-1.85.48-3.71,1-5.56,1.53-.2,1.15-.39,2.3-.49,3.54,4.93,2.71,13.14,3,19.16,1.39a4.64,4.64,0,0,0,.19-1.61A10.54,10.54,0,0,0,175,86.26Zm3.71,20.8-55.15,0L123.3.25h55.5C178.8,35.83,177.25,71.49,178.73,107.06Zm45.69-78.38-.83,2.16.6,2.2a12,12,0,0,1,2.39,2.63v8.71c-.48,12.83-1,25.65-1.35,38.48-7.51-.19-7.51-.19-8.57-1.15-.87-16.18.39-30.54-.87-46.24l3.75-.86c2.29-3.79,1.62-2.58.39-6.67-6-1.72-10.5-.32-15.6,2.36.29,2,1.54,2.78,2.22,4.7h2.69c.19,2.87-.35,5.32-.06,8.29-.48.38.75,5.7.36,6.18.38,11.3,2.68,24.68-2.71,35-2.69.1-5.39.29-8,.48-3.3-10.8-1.87-17-1.9-27.64,0-9.63-1.81-19.85,5.56-26.92-.19-.86-.29-1.63-.38-2.39-6-.1-10.38-1.91-15.09,1.82,8.66,10.72,4.31,41.16,2.1,55.71h-1.72c.19,2,.39,4,.67,6,1.92,1.34,1,1.34,5.08,1.34l.3-.36a12.4,12.4,0,0,0,2.44.45c2.65.17,5.34-.2,8,0l4.63.3.72,0v.26h5.29v-.08c5.52.13,12.59.13,13.26-.51a55.87,55.87,0,0,0,8-2.32c.27-.31,1.67-1.66,1.87-2h0l-.24-1.43c-4.68-8.47-4.82-20.52-4.15-32.36.55-9.73,1.26-19.31,3.74-26.64l.56-.63h0l-.27-.1h0l-.92-.3a15.64,15.64,0,0,0-1.73-.42h0C231.9,26.28,224.17,28.69,224.42,28.69ZM239.37.11c.27,35.59-.61,71.51,0,107.1h-55.6L183.85.11Zm7.84,87.68.08-.36c5.42,7.08,22.81,3.25,31.45,4v0h.39c.2,0,.1,0,.2-.14H280v.17c5.56-.38,11.21-.76,16.86-1V64.3c-1.06.1-2.1.24-3.1.37-2.21,4.49-2.91,11.76-5.32,16.83-12.56-.67-14,.57-18.19.57-1-.19-1.91-.38-2.81-.57.3-7.08.6-14.06,1-21,8.14-1.53,8.64,1.34,11.15,8.41h3.52C289,61,289.29,48,282.25,40.77c-3.11,2.68-3.11,2.68-7.64,10.81h-7.13c.9-25.24-1.21-20.84,19.89-18.26,1.11-.38,2.31-.67,3.52-1,.3,4.59.6,9.18,1,13.86,1.6.48,3.3,1,5,1.43V25.88c-1-.35-2-.62-2.9-.88a2.69,2.69,0,0,0-2.59-.39c-1.52.52-3.09-.31-4.34.39-10.55-.67-25.22-2.49-35.26-.38-.4.76-1.51.37-1.81,1.23-.7,0-.2,1.49-.91,1.49,0,2-.4,1.51,1,3.14,2.51.1,5,.36,7.64.55.9,1.53,1.81,3.06,2.81,4.59v6c-.9,13-1.71,26.1-2.51,39.2-8.14,3.54-8.14,3.54-10.75,5.93h-.08ZM300.11.34V107H244.54V74.35h.07V27.42h-.07V.34ZM.23.39H54.87c0,28.19-.2,56.39-.2,84.57h0c.18,7.33.19,14.64.19,22H.14c.29,0-.06-6.29,0-16C.19,67.86.23,25.38.23.39Z"/><path class="cls-2" d="M51.62,29.4c-4.15-5.07-7-6.28-14.94-4.34-.65,1.81-1.29,3.63-1.84,5.54-8.58,4.87-4.52,11.08-8.86,19.2-2.4.1-4.8.29-7.2.48.09-6.59-1.2-15.38,2.22-21a12.09,12.09,0,0,1,1.66.67c1.29-2,1.29-2,1.2-4.87-6-1.53-6-1.53-9.51-1.15l-1.94-2a32.92,32.92,0,0,0-3.23,1.34c-1.94.57-3.88,1.15-5.81,1.82.09,1.05.19,2.1.37,3.15,1.94.67,4,1.43,6,2.2C9.64,46.56,9.55,62.8,9.46,79,7.24,80.75,5,82.47,2.81,84.29v3.63c2.12.29,4.25.67,6.37,1.05,1.66.19,3.41.38,5.17.67,4.71-1,9.41-1.82,14.12-2.67a23.83,23.83,0,0,1,.09-2.58C23.39,83,23.39,83,21,83.62,15.73,76.07,16.38,68,16.29,59.07,31,48.95,34.19,69.2,34.93,78.27a13,13,0,0,0-2,.76c3.2,9.94,8.65,14,16.8,8.09l1.92-4.67V77.41c-2.33-3-5.67-2.6-11.5-4.65-.83-7.83-.92-12.23-4.8-19C39,41.91,43.63,41.8,50.85,35.12L52,32.2Zm11.82,53c5.73,6,3.84,8.13,15.58,6.65.29-2,.29-2,2.83-3.07,1.76-6.34,3.52-12.67,5.27-18.91-.49-1.82-1-3.65-1.37-5.38.39-5.47-1.17-30.24,6.93-30.24,3.81,5.18,3.22,12,3.91,18.24.19,1.92.39,3.94.68,6C97,64.25,96.69,73,96.4,81.72c-1.66-.19-3.32-.38-4.88-.48-.68,5.38-.68,5.38.49,7.87,2.83.86,17.77.19,21.87-1.15-.88-1.73-1.76-3.46-2.54-5.18C97.18,78.65,104,61.66,104.12,49c.2-2,.39-4,.68-6,.39,0-.24-1.16.25-1.16V37.05c-.49,0,.51-.84.12-.84-.19-1.34-.66-2.58-.76-3.83l1.76-2h5.37V23.64c-10.55.29-21.39-1.06-39.26.1-.39,1.15-.78,2.3-1.17,3.55,2.15,3.26,3.13,3.94,6.84,5.66.29,2.88.68,5.76,1.07,8.74-.29,2.88-.49,5.76-.68,8.64.1,8.64.1,15.07-2.25,23.43-3.91.38-7.71.86-11.52,1.34-.4.51-.77,1-1.12,1.52ZM117,.34V107H61.25V.35H117Zm58,85.92a16.4,16.4,0,0,0-4.24-2.79c-.78-16.75-1.66-34,.78-50,1.37-.29,2.83-.58,4.29-.77.19-1.34.39-2.68.68-4-3.61-2-18.63-5-20.29-.67v8.62c-4.58,6-1.56,15.6-8.88,22.59-6.44,15.32-6.44,15.32-8.1,16-3.9-12.35.29-28.43,1.37-41.26l6.73-4.6V26c-6.63,0-13.27,0-19.8.1-.2,1.44-.39,2.87-.59,4.4l4.29.29c2.63,5.27.68,6.89,1.95,11.87.39,1.72.88,3.45,1.37,5.27-.29,9.19,1.07,31.69-7.9,37.24-.39,1.34-.78,2.68-1.07,4.12l3.51.57h5.46c5.75,0,8.58.77,14.83-.38a15.85,15.85,0,0,1,.1-2.2c-1-.29-1.85-.58-2.73-.77.89-14.36,8.06-32.65,17.56-42.51V59.25c-2.73,7.76-1.27,16-2.44,24.22-1.85.48-3.71,1-5.56,1.53-.2,1.15-.39,2.3-.49,3.54,4.93,2.71,13.14,3,19.16,1.39a4.64,4.64,0,0,0,.19-1.61A10.54,10.54,0,0,0,175,86.26Zm3.71,20.8-55.15,0L123.3.25h55.5C178.8,35.83,177.25,71.49,178.73,107.06Zm45.69-78.38-.83,2.16.6,2.2a12,12,0,0,1,2.39,2.63v8.71c-.48,12.83-1,25.65-1.35,38.48-7.51-.19-7.51-.19-8.57-1.15-.87-16.18.39-30.54-.87-46.24l3.75-.86c2.29-3.79,1.62-2.58.39-6.67-6-1.72-10.5-.32-15.6,2.36.29,2,1.54,2.78,2.22,4.7h2.69c.19,2.87-.35,5.32-.06,8.29-.48.38.75,5.7.36,6.18.38,11.3,2.68,24.68-2.71,35-2.69.1-5.39.29-8,.48-3.3-10.8-1.87-17-1.9-27.64,0-9.63-1.81-19.85,5.56-26.92-.19-.86-.29-1.63-.38-2.39-6-.1-10.38-1.91-15.09,1.82,8.66,10.72,4.31,41.16,2.1,55.71h-1.72c.19,2,.39,4,.67,6,1.92,1.34,1,1.34,5.08,1.34l.3-.36a12.4,12.4,0,0,0,2.44.45c2.65.17,5.34-.2,8,0l4.63.3.72,0v.26h5.29v-.08c5.52.13,12.59.13,13.26-.51a55.87,55.87,0,0,0,8-2.32c.27-.31,1.67-1.66,1.87-2h0l-.24-1.43c-4.68-8.47-4.82-20.52-4.15-32.36.55-9.73,1.26-19.31,3.74-26.64l.56-.63h0l-.27-.1h0l-.92-.3a15.64,15.64,0,0,0-1.73-.42h0C231.9,26.28,224.17,28.69,224.42,28.69ZM239.37.11c.27,35.59-.61,71.51,0,107.1h-55.6L183.85.11Zm7.84,87.68.08-.36c5.42,7.08,22.81,3.25,31.45,4v0h.39c.2,0,.1,0,.2-.14H280v.17c5.56-.38,11.21-.76,16.86-1V64.3c-1.06.1-2.1.24-3.1.37-2.21,4.49-2.91,11.76-5.32,16.83-12.56-.67-14,.57-18.19.57-1-.19-1.91-.38-2.81-.57.3-7.08.6-14.06,1-21,8.14-1.53,8.64,1.34,11.15,8.41h3.52C289,61,289.29,48,282.25,40.77c-3.11,2.68-3.11,2.68-7.64,10.81h-7.13c.9-25.24-1.21-20.84,19.89-18.26,1.11-.38,2.31-.67,3.52-1,.3,4.59.6,9.18,1,13.86,1.6.48,3.3,1,5,1.43V25.88c-1-.35-2-.62-2.9-.88a2.69,2.69,0,0,0-2.59-.39c-1.52.52-3.09-.31-4.34.39-10.55-.67-25.22-2.49-35.26-.38-.4.76-1.51.37-1.81,1.23-.7,0-.2,1.49-.91,1.49,0,2-.4,1.51,1,3.14,2.51.1,5,.36,7.64.55.9,1.53,1.81,3.06,2.81,4.59v6c-.9,13-1.71,26.1-2.51,39.2-8.14,3.54-8.14,3.54-10.75,5.93h-.08ZM300.11.34V107H244.54V74.35h.07V27.42h-.07V.34ZM.23.39H54.87c0,28.19-.2,56.39-.2,84.57h0c.18,7.33.19,14.64.19,22H.14c.29,0-.06-6.29,0-16C.19,67.86.23,25.38.23.39Z"/></svg>